<?xml version="1.0" encoding="UTF-8"?>
<svg width="275px" height="116px" viewBox="0 0 275 116" version="1.1" xmlns="http://www.w3.org/2000/svg" xmlns:xlink="http://www.w3.org/1999/xlink">
    <!-- Generator: Sketch 47 (45396) - http://www.bohemiancoding.com/sketch -->
    <title>logo</title>
    <desc>Created with Sketch.</desc>
    <defs>
        <rect id="path-1" x="0" y="0" width="279.632812" height="120.077619"></rect>
    </defs>
    <g id="Wireframes" stroke="none" stroke-width="1" fill="none" fill-rule="evenodd">
        <g id="logo" transform="translate(-3.000000, -2.000000)">
            <mask id="mask-2" fill="white">
                <use xlink:href="#path-1"></use>
            </mask>
            <g id="Mask"></g>
            <g mask="url(#mask-2)">
                <g transform="translate(2.532652, 2.148063)">
                    <path d="M59.8257251,55.0264436 L59.8257251,27.9678567 C59.8257251,20.3141421 55.4963512,16.7578707 48.6157391,16.7578707 C42.7401603,16.7578707 37.8696146,20.1595216 35.7049277,23.4065521 C34.1587227,18.9998679 30.4478308,16.7578707 25.1134237,16.7578707 C19.2378448,16.7578707 14.4446094,20.0822114 12.8210942,22.2468983 L12.8210942,17.6855937 L0.915316019,17.6855937 L0.915316019,55.0264436 L12.8210942,55.0264436 L12.8210942,30.9056461 C14.0580582,29.3594412 16.3000554,27.2720645 19.4697756,27.2720645 C23.1033572,27.2720645 24.4176315,29.4367514 24.4176315,32.2972306 L24.4176315,55.0264436 L36.3234097,55.0264436 L36.3234097,30.9056461 C37.4830634,29.3594412 39.8023708,27.2720645 43.0494013,27.2720645 C46.6056727,27.2720645 47.9972571,29.4367514 47.9972571,32.2972306 L47.9972571,55.0264436 L59.8257251,55.0264436 Z M74.5146723,14.361253 C78.3028744,14.361253 81.3179741,11.2688431 81.3179741,7.48064095 C81.3179741,3.69243879 78.3028744,0.677339109 74.5146723,0.677339109 C70.7264701,0.677339109 67.7113704,3.69243879 67.7113704,7.48064095 C67.7113704,11.2688431 70.7264701,14.361253 74.5146723,14.361253 Z M80.4675614,55.0264436 L80.4675614,17.6855937 L68.5617832,17.6855937 L68.5617832,55.0264436 L80.4675614,55.0264436 Z M104.665669,70.1792522 C98.2489185,70.1792522 92.9145113,68.555737 88.1212759,64.6129143 L93.3010626,56.108787 C96.1615418,59.201197 100.336295,60.4381609 104.665669,60.4381609 C108.608492,60.4381609 114.17483,58.8146457 114.17483,51.8567234 L114.17483,48.9962442 C111.08242,52.6298259 107.371528,54.4079616 103.119464,54.4079616 C93.9968548,54.4079616 86.6523812,48.1458315 86.6523812,35.544261 C86.6523812,23.2519316 93.7649241,16.7578707 103.119464,16.7578707 C107.294217,16.7578707 111.15973,18.3813859 114.17483,22.0922778 L114.17483,17.6855937 L126.003298,17.6855937 L126.003298,51.7021029 C126.003298,66.9322218 113.942899,70.1792522 104.665669,70.1792522 Z M107.062287,43.8937678 C109.536215,43.8937678 112.705935,42.5794936 114.17483,40.5694272 L114.17483,30.5964051 C112.705935,28.5863387 109.536215,27.2720645 107.062287,27.2720645 C102.346362,27.2720645 98.8674004,30.1325437 98.8674004,35.544261 C98.8674004,41.0332886 102.346362,43.8937678 107.062287,43.8937678 Z M146.645134,55.0264436 L146.645134,31.2148871 C148.191339,29.1275104 152.288782,27.8132362 155.381192,27.8132362 C156.618156,27.8132362 157.623189,27.9678567 158.318981,28.1224772 L158.318981,16.6805605 C153.834987,16.6805605 149.119062,19.2317987 146.645134,22.2468983 L146.645134,17.6855937 L134.739356,17.6855937 L134.739356,55.0264436 L146.645134,55.0264436 Z M197.669898,55.0264436 L185.764119,55.0264436 L185.764119,51.3155517 C183.444812,54.0987206 178.960818,55.9541665 174.167582,55.9541665 C168.446624,55.9541665 161.334081,52.0886541 161.334081,43.6618371 C161.334081,34.6165381 168.446624,31.6787486 174.167582,31.6787486 C179.115438,31.6787486 183.522122,33.2249536 185.764119,36.0081225 L185.764119,31.5241281 C185.764119,28.2770977 182.98095,26.1124108 178.187715,26.1124108 C174.476823,26.1124108 170.611311,27.5039952 167.596211,30.0552334 L163.344147,22.5561393 C168.137383,18.4586962 174.554133,16.7578707 180.275092,16.7578707 C189.243081,16.7578707 197.669898,20.0822114 197.669898,31.6787486 L197.669898,55.0264436 Z M179.115438,48.1458315 C181.743986,48.1458315 184.527155,47.2181085 185.764119,45.4399728 L185.764119,42.1156321 C184.527155,40.4148067 181.743986,39.4870837 179.115438,39.4870837 C175.945718,39.4870837 173.162549,40.8786682 173.162549,43.8164576 C173.162549,46.754247 175.945718,48.1458315 179.115438,48.1458315 Z M243.514875,55.0264436 L243.514875,28.5863387 C243.514875,21.7057266 239.649362,16.7578707 231.145235,16.7578707 C224.883105,16.7578707 220.476421,19.6183499 218.234424,22.2468983 L218.234424,17.6855937 L206.328645,17.6855937 L206.328645,55.0264436 L218.234424,55.0264436 L218.234424,30.9056461 C219.626008,29.2048207 221.945316,27.2720645 225.501587,27.2720645 C229.212479,27.2720645 231.609097,28.8955797 231.609097,33.4568843 L231.609097,55.0264436 L243.514875,55.0264436 Z M266.321398,55.9541665 C270.728082,55.9541665 273.665872,54.8718231 275.134766,53.4802386 L272.815459,44.5122498 C272.428908,44.9761113 271.114633,45.4399728 269.800359,45.4399728 C267.712982,45.4399728 266.476018,43.8164576 266.476018,41.6517706 L266.476018,28.045167 L274.052423,28.045167 L274.052423,17.6855937 L266.476018,17.6855937 L266.476018,7.48064095 L254.64755,7.48064095 L254.64755,17.6855937 L248.462731,17.6855937 L248.462731,28.045167 L254.64755,28.045167 L254.64755,44.9761113 C254.64755,52.1659644 258.744994,55.9541665 266.321398,55.9541665 Z" id="migrant-copy-6" fill="#029CA6"></path>
                    <path d="M11.8802121,115.513642 C15.8230347,115.513642 19.1473754,112.189301 19.1473754,108.246478 C19.1473754,104.303656 15.8230347,100.979315 11.8802121,100.979315 C7.93738941,100.979315 4.61304874,104.303656 4.61304874,108.246478 C4.61304874,112.189301 7.93738941,115.513642 11.8802121,115.513642 Z M63.9873193,114.585919 L63.9873193,87.9911932 C63.9873193,81.1105811 60.1218069,76.3173457 51.6176796,76.3173457 C45.3555495,76.3173457 40.9488654,79.1778249 38.7068682,81.8063733 L38.7068682,63.019983 L26.80109,63.019983 L26.80109,114.585919 L38.7068682,114.585919 L38.7068682,90.4651211 C40.0984526,88.7642957 42.4177601,86.8315395 45.8967213,86.8315395 C49.6849234,86.8315395 52.0815411,88.3004342 52.0815411,92.8617388 L52.0815411,114.585919 L63.9873193,114.585919 Z M90.5820447,115.513642 C79.0628177,115.513642 70.1721392,108.014547 70.1721392,95.8768385 C70.1721392,85.0534038 78.3670255,76.3173457 90.040873,76.3173457 C101.096238,76.3173457 109.136504,84.4349218 109.136504,97.1138025 L109.136504,99.6650407 L82.5417789,99.6650407 C83.2375711,103.144002 86.4846015,106.313722 91.8963189,106.313722 C94.5248674,106.313722 99.086172,105.154068 101.173549,103.144002 L106.198715,110.565786 C102.487823,113.890126 96.3030031,115.513642 90.5820447,115.513642 Z M97.7718978,91.9340159 C97.4626568,89.3054674 95.5299006,85.5172653 90.040873,85.5172653 C84.8610863,85.5172653 82.8510199,89.2281572 82.3871584,91.9340159 L97.7718978,91.9340159 Z M148.951282,114.585919 L137.045504,114.585919 L137.045504,110.875027 C134.726196,113.658196 130.242202,115.513642 125.448967,115.513642 C119.728008,115.513642 112.615465,111.648129 112.615465,103.221312 C112.615465,94.1760131 119.728008,91.2382236 125.448967,91.2382236 C130.396822,91.2382236 134.803507,92.7844286 137.045504,95.5675975 L137.045504,91.0836031 C137.045504,87.8365727 134.262335,85.6718858 129.4691,85.6718858 C125.758208,85.6718858 121.892695,87.0634702 118.877596,89.6147084 L114.625532,82.1156143 C119.418767,78.0181712 125.835518,76.3173457 131.556476,76.3173457 C140.524465,76.3173457 148.951282,79.6416864 148.951282,91.2382236 L148.951282,114.585919 Z M130.396822,107.705306 C133.025371,107.705306 135.80854,106.777584 137.045504,104.999448 L137.045504,101.675107 C135.80854,99.9742817 133.025371,99.0465587 130.396822,99.0465587 C127.227102,99.0465587 124.443933,100.438143 124.443933,103.375933 C124.443933,106.313722 127.227102,107.705306 130.396822,107.705306 Z M169.515808,114.585919 L169.515808,63.019983 L157.61003,63.019983 L157.61003,114.585919 L169.515808,114.585919 Z M192.322331,115.513642 C196.729015,115.513642 199.666805,114.431298 201.1357,113.039714 L198.816392,104.071725 C198.429841,104.535586 197.115567,104.999448 195.801292,104.999448 C193.713916,104.999448 192.476952,103.375933 192.476952,101.211246 L192.476952,87.604642 L200.053356,87.604642 L200.053356,77.2450687 L192.476952,77.2450687 L192.476952,67.0401159 L180.648484,67.0401159 L180.648484,77.2450687 L174.463664,77.2450687 L174.463664,87.604642 L180.648484,87.604642 L180.648484,104.535586 C180.648484,111.725439 184.745927,115.513642 192.322331,115.513642 Z M243.269785,114.585919 L243.269785,87.9911932 C243.269785,81.1105811 239.404272,76.3173457 230.900145,76.3173457 C224.638015,76.3173457 220.231331,79.1778249 217.989334,81.8063733 L217.989334,63.019983 L206.083555,63.019983 L206.083555,114.585919 L217.989334,114.585919 L217.989334,90.4651211 C219.380918,88.7642957 221.700226,86.8315395 225.179187,86.8315395 C228.967389,86.8315395 231.364007,88.3004342 231.364007,92.8617388 L231.364007,114.585919 L243.269785,114.585919 Z" id=".health-copy-6" fill="#778A92"></path>
                </g>
            </g>
        </g>
    </g>
</svg>